<svg width="512" height="512" viewBox="0 0 512 512" fill="none" xmlns="http://www.w3.org/2000/svg">
<path d="M134.941 272.691H191.064V503.742C191.064 508.304 194.76 512 199.322 512H294.481C299.043 512 302.739 508.304 302.739 503.742V273.78H367.258C371.453 273.78 374.983 270.632 375.462 266.465L385.261 181.404C385.53 179.064 384.789 176.72 383.223 174.964C381.656 173.207 379.413 172.201 377.059 172.201H302.743V118.88C302.743 102.807 311.397 94.656 328.469 94.656C330.902 94.656 377.059 94.656 377.059 94.656C381.621 94.656 385.317 90.958 385.317 86.398V8.319C385.317 3.757 381.621 0.061 377.059 0.061H310.094C309.622 0.038 308.573 0 307.027 0C295.408 0 255.021 2.281 223.118 31.63C187.77 64.154 192.684 103.095 193.858 109.847V172.199H134.94C130.378 172.199 126.682 175.895 126.682 180.457V264.432C126.683 268.993 130.379 272.691 134.941 272.691Z" fill="white"/>
</svg>
