<svg width="513" height="513" viewBox="0 0 513 513" fill="none" xmlns="http://www.w3.org/2000/svg">
<g clip-path="url(#clip0_202_19)">
<path d="M500.398 94.784C492.355 98.351 484.085 101.362 475.635 103.807C485.639 92.493 493.266 79.181 497.922 64.614C498.966 61.349 497.884 57.775 495.2 55.639C492.519 53.502 488.795 53.246 485.844 54.995C467.899 65.638 448.539 73.287 428.239 77.759C407.79 57.778 380.017 46.406 351.305 46.406C290.699 46.406 241.392 95.712 241.392 156.316C241.392 161.089 241.694 165.836 242.292 170.517C167.086 163.914 97.1679 126.949 49.1559 68.054C47.4449 65.955 44.8089 64.823 42.1099 65.04C39.4099 65.251 36.9829 66.774 35.6189 69.115C25.8809 85.824 20.7329 104.935 20.7329 124.38C20.7329 150.864 30.1879 175.991 46.8909 195.626C41.8119 193.867 36.8839 191.669 32.1799 189.058C29.6549 187.652 26.5729 187.674 24.0639 189.112C21.5539 190.551 19.9799 193.196 19.9129 196.088C19.9009 196.575 19.9009 197.062 19.9009 197.556C19.9009 237.087 41.1769 272.678 73.7059 292.076C70.9109 291.797 68.1189 291.392 65.3439 290.862C62.4829 290.315 59.5419 291.318 57.6129 293.5C55.6809 295.68 55.0409 298.719 55.9319 301.494C67.9719 339.085 98.9709 366.734 136.446 375.164C105.364 394.632 69.8199 404.829 32.5069 404.829C24.7209 404.829 16.8909 404.372 9.22794 403.465C5.42094 403.012 1.78094 405.26 0.483943 408.881C-0.813057 412.503 0.561943 416.541 3.79994 418.617C51.7349 449.352 107.161 465.597 164.084 465.597C275.987 465.597 345.991 412.828 385.01 368.56C433.667 313.361 461.572 240.299 461.572 168.109C461.572 165.093 461.526 162.048 461.433 159.012C480.63 144.549 497.157 127.045 510.606 106.927C512.649 103.872 512.428 99.833 510.061 97.021C507.7 94.204 503.76 93.294 500.398 94.784Z" fill="white"/>
</g>
<defs>
<clipPath id="clip0_202_19">
<rect width="512.002" height="512.002" fill="white"/>
</clipPath>
</defs>
</svg>
